<svg height="512" viewBox="0 0 128 128" width="512" xmlns="http://www.w3.org/2000/svg"><g><g><path d="m39.562 1.747h48.875a10 10 0 0 1 10 10v37.5a6 6 0 0 1 -6 6h-56.875a6 6 0 0 1 -6-6v-37.5a10 10 0 0 1 10-10z" fill="#c86e59"/><path d="m23.375 71.621h81.25a6 6 0 0 1 6 6v10.191a0 0 0 0 1 0 0h-93.25a0 0 0 0 1 0 0v-10.191a6 6 0 0 1 6-6z" fill="#c86e59"/><g fill="#5b5555"><path d="m36.988 126.247h-10.049v-38.435h16.053z"/><path d="m89.55 126.247h9.504v-38.435h-15.184z"/><path d="m36.988 126.247h-10.049v-38.435h16.053z"/><path d="m89.55 126.247h9.504v-38.435h-15.184z"/></g><path d="m85.597 99.496h-44.43l-1.25 8h46.862z" fill="#fabe2c"/><path d="m39.917 55.25h11.833v16.371h-11.833z" fill="#5b5555"/><path d="m76.25 55.25h11.833v16.371h-11.833z" fill="#5b5555" transform="matrix(-1 0 0 -1 164.333 126.871)"/></g><g><path d="m29.562 38.373a1.749 1.749 0 0 0 1.75-1.75v-6.434a1.75 1.75 0 0 0 -3.5 0v6.434a1.75 1.75 0 0 0 1.75 1.75z"/><path d="m104.625 69.871h-14.792v-12.871h2.6a7.759 7.759 0 0 0 7.75-7.75v-37.5a11.763 11.763 0 0 0 -11.746-11.75h-48.875a11.763 11.763 0 0 0 -11.75 11.75v5.816a1.75 1.75 0 0 0 3.5 0v-5.819a8.26 8.26 0 0 1 8.25-8.25h48.875a8.259 8.259 0 0 1 8.25 8.25v37.5a4.255 4.255 0 0 1 -4.25 4.25h-56.875a4.255 4.255 0 0 1 -4.25-4.25 1.75 1.75 0 0 0 -3.5 0 7.759 7.759 0 0 0 7.75 7.753h2.605v12.871h-14.792a7.759 7.759 0 0 0 -7.75 7.75v10.192a1.751 1.751 0 0 0 1.75 1.75h7.814v36.684a1.751 1.751 0 0 0 1.75 1.75h10.049a1.75 1.75 0 0 0 1.729-1.48l2.7-17.271h43.851l2.55 17.257a1.751 1.751 0 0 0 1.732 1.497h9.505a1.751 1.751 0 0 0 1.75-1.75v-19.22a1.75 1.75 0 0 0 -3.5 0v17.47h-6.245l-2.549-17.251v-.006l-1.183-8-1.428-9.68h11.405v5.437a1.75 1.75 0 0 0 3.5 0v-5.437h9.82a1.75 1.75 0 0 0 1.75-1.75v-10.192a7.759 7.759 0 0 0 -7.75-7.75zm-18.292-12.871v12.871h-8.333v-12.871zm-32.833 12.871v-12.871h21v12.871zm-11.833-12.871h8.333v12.871h-8.333zm-6.177 67.5h-6.8v-34.937h12.258l-1.766 11.3-.994 6.361zm6.472-18.751.7-4.5h41.424l.052.353.613 4.147zm41.607-8h-40.358l1.279-8.183h37.869zm25.306-11.683h-89.75v-8.445a4.255 4.255 0 0 1 4.25-4.25h81.25a4.255 4.255 0 0 1 4.25 4.25z"/></g></g></svg>