<svg id="Capa_1" enable-background="new 0 0 512 512" height="512" viewBox="0 0 512 512" width="512" xmlns="http://www.w3.org/2000/svg"><path d="m63.916 84.558h384.169v342.884h-384.169z" fill="#5ce9ff" transform="matrix(-1 0 0 -1 512 512)"/><path d="m430.049 84.558h18.035v342.884h-18.035z" fill="#00e3f9"/><path d="m31.928 472.514h448.143v31.971h-448.143z" fill="#d56723"/><path d="m462.036 472.514h18.035v31.971h-18.035z" fill="#b6591e"/><path d="m301.883 371.757h87.087l-9.017 55.685h-69.052z" fill="#ffa549"/><path d="m370.935 371.757-9.017 55.685h18.035l9.017-55.685z" fill="#ff9200"/><path d="m504.485 472.514h-496.97v-25.033c0-11.067 8.972-20.039 20.039-20.039h456.892c11.067 0 20.039 8.972 20.039 20.039z" fill="#eb966d"/><path d="m484.446 52.587h-456.892c-11.067 0-20.039-8.972-20.039-20.039v-25.033h496.971v25.033c-.001 11.067-8.973 20.039-20.04 20.039z" fill="#eb966d"/><path d="m486.45 7.515v25.033c0 11.068-8.972 20.039-20.039 20.039h18.035c11.067 0 20.039-8.972 20.039-20.039v-25.033z" fill="#e8834d"/><path d="m94.514 427.442h34.141l184.002-184.001h-34.141z" fill="#a4f9ff"/><path d="m63.916 398.387v29.055h30.598l184.002-184.001h-59.654z" fill="#80f2f5"/><path d="m63.916 84.558v158.883h384.168v-158.883" fill="#eaeff9"/><path d="m430.049 84.558h18.035v158.883h-18.035z" fill="#dbe0ea"/><path d="m31.928 52.587v31.971 342.884h31.988v-342.884h384.168v342.884h31.987v-342.884-31.971z" fill="#a95118"/><path d="m45.88 427.442h18.035v-342.884h-13.025c-2.767 0-5.01 2.243-5.01 5.01z" fill="#994916"/><path d="m462.036 52.587v31.971 342.884h18.035v-342.884-31.971z" fill="#994916"/><path d="m484.446 427.442h-18.035c11.067 0 20.039 8.972 20.039 20.039v25.033h18.035v-25.033c0-11.067-8.972-20.039-20.039-20.039z" fill="#e8834d"/><path d="m95.903 84.558h320.194v126.912h-320.194z" fill="#5ce9ff" transform="matrix(-1 0 0 -1 512 296.028)"/><path d="m130.077 211.47 126.912-126.912h-34.141l-126.912 126.912z" fill="#a4f9ff"/><path d="m163.194 84.558-67.291 67.291v59.621h.033l126.912-126.912z" fill="#80f2f5"/><path d="m398.062 84.558h18.035v126.912h-18.035z" fill="#00e3f9"/><path d="m219.039 211.47h73.921v-19.086c0-4.878-3.954-8.832-8.832-8.832h-56.257c-4.878 0-8.832 3.954-8.832 8.832z" fill="#ffe2cb"/><path d="m284.129 183.552h-18.035c4.878 0 8.832 3.954 8.832 8.832v19.086h18.035v-19.086c0-4.878-3.955-8.832-8.832-8.832z" fill="#efc89d"/><path d="m398.397 371.757h-105.941c-2.407 0-4.359-1.952-4.359-4.359v-18.84c0-2.408 1.952-4.359 4.359-4.359h105.942c2.408 0 4.359 1.952 4.359 4.359v18.84c0 2.407-1.952 4.359-4.36 4.359z" fill="#ffe2cb"/><path d="m398.397 344.198h-18.035c2.407 0 4.359 1.951 4.359 4.359v18.84c0 2.407-1.952 4.359-4.359 4.359h18.035c2.407 0 4.359-1.952 4.359-4.359v-18.84c.001-2.407-1.951-4.359-4.359-4.359z" fill="#efc89d"/><path d="m322.078 279.545c16.463 6.105 23.348 28.458 23.348 28.458s-19.806 12.455-36.27 6.35-23.348-28.458-23.348-28.458 19.807-12.455 36.27-6.35z" fill="#98d72a"/><path d="m368.775 279.545c-16.463 6.105-23.348 28.458-23.348 28.458s19.806 12.455 36.269 6.35 23.348-28.458 23.348-28.458-19.806-12.455-36.269-6.35z" fill="#98d72a"/><path d="m309.157 296.319c-7.163-2.656-12.511-8.388-16.27-14.017-4.316 1.858-7.079 3.594-7.079 3.594s6.885 22.353 23.348 28.458 36.27-6.35 36.27-6.35-2.199-7.133-7.079-14.441c-7.244 3.119-18.873 6.582-29.19 2.756z" fill="#8bc727"/><path d="m381.696 296.319c-10.317 3.826-21.945.363-29.191-2.756-4.88 7.308-7.079 14.441-7.079 14.441s19.806 12.455 36.269 6.35 23.349-28.458 23.349-28.458-2.762-1.736-7.079-3.594c-3.758 5.628-9.106 11.361-16.269 14.017z" fill="#8bc727"/><path d="m512 32.548v-25.033c0-4.15-3.364-7.515-7.515-7.515h-496.97c-4.151 0-7.515 3.365-7.515 7.515v25.033c0 14.131 10.694 25.806 24.414 27.37v266.175c0 4.15 3.365 7.515 7.515 7.515s7.515-3.365 7.515-7.515v-265.992h433.114v359.826h-16.958v-63.777c0-4.15-3.364-7.515-7.515-7.515s-7.515 3.365-7.515 7.515v63.777h-51.787l6.584-40.656h3.031c6.547 0 11.874-5.326 11.874-11.874v-18.841c0-6.547-5.327-11.874-11.874-11.874h-45.456v-16.834c5.299 1.957 11.943 3.686 18.895 3.686 4.122 0 8.352-.608 12.472-2.135 19.714-7.311 27.592-32.235 27.918-33.293 1-3.249-.304-6.764-3.182-8.573-.936-.589-23.169-14.344-42.882-7.035-9.506 3.525-16.253 11.145-20.736 18.21-4.482-7.066-11.229-14.685-20.736-18.21-19.71-7.309-41.945 6.446-42.882 7.035-2.878 1.81-4.182 5.325-3.182 8.574.326 1.057 8.204 25.981 27.918 33.292 4.12 1.528 8.348 2.135 12.472 2.135 6.952-.001 13.596-1.73 18.895-3.687v16.835h-45.456c-6.547 0-11.874 5.326-11.874 11.874v18.841c0 6.547 5.327 11.874 11.874 11.874h3.031l6.584 40.656h-230.641v-168.971h369.139v75.137c0 4.15 3.364 7.515 7.515 7.515s7.515-3.365 7.515-7.515v-82.651-158.884c0-4.15-3.364-7.515-7.515-7.515h-384.168c-4.15 0-7.515 3.364-7.515 7.515v158.883 176.487h-16.958v-63.777c0-4.15-3.364-7.515-7.515-7.515s-7.515 3.365-7.515 7.515v63.961c-13.719 1.564-24.413 13.238-24.413 27.369v25.033c0 4.15 3.364 7.515 7.515 7.515h16.899v24.456c0 4.15 3.365 7.515 7.515 7.515h448.143c4.151 0 7.515-3.365 7.515-7.515v-24.456h16.899c4.151 0 7.515-3.365 7.515-7.515v-25.033c0-14.131-10.694-25.806-24.414-27.37v-360.194c13.719-1.564 24.413-13.238 24.413-27.369zm-140.612 254.043c7.752-2.876 17.595-.036 24.124 2.822-2.837 5.971-8.267 14.868-16.428 17.894-7.751 2.874-17.595.036-24.123-2.822 2.836-5.97 8.265-14.867 16.427-17.894zm-59.618 20.717c-7.757-2.877-13.37-11.459-16.45-17.883 6.534-2.865 16.387-5.712 24.146-2.834 7.757 2.877 13.37 11.459 16.45 17.883-6.535 2.866-16.388 5.71-24.146 2.834zm-240.34-215.236h16.958v47.336c0 4.15 3.364 7.515 7.515 7.515s7.515-3.365 7.515-7.515v-47.336h305.164v111.883h-108.107v-11.571c0-9.013-7.333-16.346-16.346-16.346h-56.258c-9.014 0-16.347 7.333-16.347 16.346v11.571h-108.106v-34.488c0-4.15-3.365-7.515-7.515-7.515s-7.515 3.365-7.515 7.515v42.003c0 4.15 3.364 7.515 7.515 7.515h320.194c4.151 0 7.515-3.364 7.515-7.515v-119.398h16.958v143.854h-369.14zm214.016 100.312v11.571h-58.892v-11.571c0-.726.591-1.317 1.318-1.317h56.258c.725-.001 1.316.591 1.316 1.317zm10.165 159.329h99.63v12.529h-99.63zm15.101 27.559h69.43l-6.584 40.656h-56.262zm161.845 117.699h-433.114v-16.942h433.114zm24.414-49.49v17.519h-481.942v-17.518c0-6.906 5.618-12.525 12.524-12.525h283.317c.007 0 .014.001.022.001.004 0 .008-.001.012-.001h69.046c.004 0 .008.001.012.001.007 0 .014-.001.022-.001h104.463c6.905 0 12.524 5.618 12.524 12.524zm-12.525-402.409h-456.892c-6.906 0-12.524-5.618-12.524-12.524v-17.519h481.941v17.518c0 6.906-5.619 12.525-12.525 12.525z"/></svg>